<svg version="1.1" xmlns="http://www.w3.org/2000/svg" viewBox="0 0 2394.09153549483 2997.979059327603" width="2394.09153549483" height="2997.979059327603">
  <!-- svg-source:excalidraw -->
  
  <defs>
    <style class="style-fonts">
      @font-face {
        font-family: "Virgil";
        src: url("https://excalidraw.com/Virgil.woff2");
      }
      @font-face {
        font-family: "Cascadia";
        src: url("https://excalidraw.com/Cascadia.woff2");
      }
      @font-face {
        font-family: "Assistant";
        src: url("https://excalidraw.com/Assistant-Regular.woff2");
      }
    </style>
    
  </defs>
  <rect x="0" y="0" width="2394.09153549483" height="2997.979059327603" fill="#ffffff"></rect><g stroke-linecap="round" transform="translate(406.6557820638027 142.7999267578134) rotate(0 167.3333231608076 74.00001525878906)"><path d="M0.48 2.06 C84.68 3.55, 167.09 1.67, 335.96 -2.11 M0.51 -0.95 C126.31 1.69, 253.37 1.59, 334.96 0 M336.87 -3.68 C335.7 46.16, 339.05 85.51, 336.14 148.94 M333.04 2 C335.69 39.72, 333.81 76.85, 336.49 148.81 M332.39 150.35 C253.4 144.67, 178.37 146.66, 2.61 145.5 M335.61 149.12 C249.39 149.88, 162.27 151.48, 1.33 148.51 M-3.33 147.91 C-0.34 95.06, -2.09 48.6, 2.69 -0.61 M0.13 147.49 C4.18 109.68, 2.42 74.75, 0.86 -0.4" stroke="#1e1e1e" stroke-width="2" fill="none"></path></g><g stroke-linecap="round" transform="translate(387.3222859700527 1288.799886067709) rotate(0 167.3333231608076 74.00001525878906)"><path d="M1.9 -0.4 C72.69 -5.72, 143.62 -5.56, 336.8 -0.54 M-0.54 -0.57 C83.32 2.52, 167.62 3.19, 334.66 1.11 M333.27 1.81 C338.25 27.93, 337.77 63.18, 332.91 147.37 M336.15 1.81 C331.86 50.43, 334.08 99.62, 333.37 146.63 M332.16 146.39 C248.26 152.31, 162 149.43, -1.11 150 M336 146.97 C213.59 152.31, 92.19 152.25, 0.56 147.48 M-1.48 145.62 C-0.76 111.53, 5.15 71.02, -1.87 -3.33 M1.72 147.18 C-0.24 91.53, 0.67 31.19, -1.45 0.87" stroke="#1e1e1e" stroke-width="2" fill="none"></path></g><g stroke-linecap="round" transform="translate(418.2557576497402 565.5999755859384) rotate(0 167.3333231608076 74.00001525878906)"><path d="M1.53 -2.28 C127.2 -1.44, 253.96 0.14, 333.32 1.02 M-0.34 -0.68 C77.05 1.92, 153.51 3.03, 333.45 0.74 M336.62 -3.19 C335.11 31.71, 331.88 60.91, 336.02 144.74 M334.27 1.03 C338.69 60, 335.57 116.99, 333.9 146.31 M335.9 148.39 C207.82 142.81, 74.64 147.32, 1.74 149.89 M335.49 148.57 C207.95 145.08, 79.15 144.05, -0.57 146.88 M-3.22 149.71 C3.78 103.33, -0.77 56.55, 3.73 0.26 M-0.04 149.74 C-1.68 106.99, -3.99 67.65, 0.16 -0.58" stroke="#1e1e1e" stroke-width="2" fill="none"></path></g><g stroke-linecap="round" transform="translate(398.9222615559902 1711.599934895834) rotate(0 167.3333231608076 74.00001525878906)"><path d="M1.29 -2.11 C97.53 3.27, 189.44 4.83, 332.76 -1.09 M0.3 0 C86.2 3.37, 171.2 3, 333.42 -0.47 M336.14 0.94 C334.36 50.46, 337.46 98.91, 338.66 150.97 M336.49 0.81 C332.79 56.45, 333.32 113.95, 336.4 146.15 M337.28 145.5 C253.05 150.65, 175.4 150.54, 2.23 150.68 M336 148.51 C260.27 149.39, 184.17 148.79, -0.03 147.5 M2.69 147.39 C0.52 109.08, 6.12 77.09, -1.02 3.44 M0.86 147.6 C-1.39 110.56, 0.23 70.8, 0.82 -1.08" stroke="#1e1e1e" stroke-width="2" fill="none"></path></g><g stroke-linecap="round" transform="translate(387.58884684244913 2158.9332071940107) rotate(0 167.3333231608076 74.00001525878906)"><path d="M2.14 -0.54 C70.87 4.56, 142.53 2.45, 333.52 -0.69 M0 1.11 C82.46 0.74, 166.1 -0.47, 335.28 0.66 M332.91 -0.63 C337.11 29.33, 339.75 68.16, 338.29 147.21 M333.37 -1.37 C336.6 50.36, 339.1 102.24, 333.48 148.91 M333.55 150 C231.2 145.71, 126.49 146.5, -2.05 149.65 M335.23 147.48 C219.56 148.59, 105.55 149.22, -0.8 146.91 M-1.87 144.67 C1.74 97.53, -3.01 49.97, -1.64 -0.09 M-1.45 148.87 C-1.12 90.15, -0.46 32.38, 0.54 -1.09" stroke="#1e1e1e" stroke-width="2" fill="none"></path></g><g stroke-linecap="round" transform="translate(1272.655843098959 135.19996643066497) rotate(0 167.3333231608076 74.00001525878906)"><path d="M-1.35 1.02 C72.34 -0.19, 147.35 0.21, 333.32 0.59 M-1.21 0.74 C99.16 -4.18, 201.42 -3.05, 333.59 0.5 M336.02 -3.26 C337.36 50.84, 337 94.95, 336.73 151.64 M333.9 -1.69 C334.49 48.58, 331.56 101.77, 334.95 149.93 M336.4 149.89 C267.44 154.03, 193.69 153.01, 1.14 150.66 M334.1 146.88 C221.52 145.77, 107.64 145.18, 0.58 148.91 M3.73 148.26 C0.36 109.29, -0.26 63.63, 3.48 1.73 M0.16 147.42 C2.96 105.48, 2.68 64.02, -0.81 -1.14" stroke="#1e1e1e" stroke-width="2" fill="none"></path></g><g stroke-linecap="round" transform="translate(1253.322347005209 1281.1999257405605) rotate(0 167.3333231608076 74.00001525878906)"><path d="M-1.91 -1.09 C92.6 -2.4, 186.13 -1.12, 334.67 -0.01 M-1.24 -0.47 C128.49 -1.83, 254.68 -1.99, 334.98 -0.59 M338.66 2.97 C339.29 41.29, 337.73 87.8, 336.3 145.41 M336.4 -1.85 C332.35 35.15, 333.83 70.42, 332.82 147.18 M336.9 150.68 C207.39 152.82, 85.36 153.82, 1.03 149.12 M334.64 147.5 C246.3 143.15, 160.11 145.15, -0.21 147.37 M-1.02 151.44 C-4.41 115.84, 0.72 85.57, -0.8 -2.9 M0.82 146.92 C0.3 96.03, -1.05 45.12, 1.44 0.27" stroke="#1e1e1e" stroke-width="2" fill="none"></path></g><g stroke-linecap="round" transform="translate(1284.2558186848964 558.00001525879) rotate(0 167.3333231608076 74.00001525878906)"><path d="M-1.15 -0.69 C111.73 2.41, 226.15 1.81, 336.89 -2.42 M0.61 0.66 C117.75 2.08, 237.97 0.99, 334.45 0.46 M338.29 -0.79 C339.69 35.98, 339.25 62.08, 331.92 146.47 M333.48 0.91 C337.52 33.85, 335.39 63, 336.15 149.29 M332.61 149.65 C212.01 155.14, 88.09 153.6, -1.04 146.87 M333.86 146.91 C262.69 147.24, 189.36 145.7, -1.12 149.26 M-1.64 147.91 C4.24 104.37, -0.04 54.38, 1.75 0.33 M0.54 146.91 C-2.02 106.73, 0.23 68, -0.35 -1.33" stroke="#1e1e1e" stroke-width="2" fill="none"></path></g><g stroke-linecap="round" transform="translate(1264.9223225911464 1703.9999745686855) rotate(0 167.3333231608076 74.00001525878906)"><path d="M-1.35 0.59 C86.93 1.14, 176.08 -1.27, 336.15 -2.49 M-1.08 0.5 C89.03 -2.8, 177.21 -1.75, 333.57 1.35 M336.73 3.64 C338.98 52.82, 334.6 109.29, 331.29 151.47 M334.95 1.93 C331.06 29.87, 334.39 62.68, 336.07 149.65 M335.81 150.66 C202.14 151.89, 66.53 149.63, -2.25 147.94 M335.24 148.91 C246.42 143.73, 157.46 145.62, 0.09 147.65 M3.48 149.73 C0.42 87.99, 2.97 34.1, -1.15 1.63 M-0.81 146.86 C0.64 111.87, -1.15 73.87, -1.15 1.72" stroke="#1e1e1e" stroke-width="2" fill="none"></path></g><g stroke-linecap="round" transform="translate(1253.5889078776054 2151.3332468668623) rotate(0 167.3333231608076 74.00001525878906)"><path d="M0 -0.01 C94.08 -3.41, 185.22 -3.48, 333.72 1.22 M0.32 -0.59 C116.55 -1.21, 232.42 -0.32, 335.67 1.22 M336.3 -2.59 C333.45 39.95, 332.82 86.43, 330.96 145.62 M332.82 -0.82 C336.58 52.42, 336.49 103.91, 336.65 146.48 M335.69 149.12 C212.74 151.31, 90.64 152.39, -1 146.39 M334.46 147.37 C260.11 152.3, 187.88 150.69, 1.16 147.44 M-0.8 145.1 C-0.82 104.24, -3.73 61.47, -2.16 1.07 M1.44 148.27 C0.84 110.37, 0.04 77.12, -0.32 1.27" stroke="#1e1e1e" stroke-width="2" fill="none"></path></g><g transform="translate(523.2990620931005 196.53327941894622) rotate(0 48.689971923828125 22.5)"><text x="48.689971923828125" y="31.536" font-family="Virgil, Segoe UI Emoji" font-size="36px" fill="#1e1e1e" text-anchor="middle" style="white-space: pre;" direction="ltr" dominant-baseline="alphabetic">Client</text></g><g transform="translate(503.9655659993505 1342.5332387288418) rotate(0 48.689971923828125 22.5)"><text x="48.689971923828125" y="31.536" font-family="Virgil, Segoe UI Emoji" font-size="36px" fill="#1e1e1e" text-anchor="middle" style="white-space: pre;" direction="ltr" dominant-baseline="alphabetic">Client</text></g><g transform="translate(534.899037679038 619.3333282470712) rotate(0 48.689971923828125 22.5)"><text x="48.689971923828125" y="31.536" font-family="Virgil, Segoe UI Emoji" font-size="36px" fill="#1e1e1e" text-anchor="middle" style="white-space: pre;" direction="ltr" dominant-baseline="alphabetic">Client</text></g><g transform="translate(515.565541585288 1765.3332875569668) rotate(0 48.689971923828125 22.5)"><text x="48.689971923828125" y="31.536" font-family="Virgil, Segoe UI Emoji" font-size="36px" fill="#1e1e1e" text-anchor="middle" style="white-space: pre;" direction="ltr" dominant-baseline="alphabetic">Client</text></g><g transform="translate(504.2321268717469 2212.6665598551435) rotate(0 48.689971923828125 22.5)"><text x="48.689971923828125" y="31.536" font-family="Virgil, Segoe UI Emoji" font-size="36px" fill="#1e1e1e" text-anchor="middle" style="white-space: pre;" direction="ltr" dominant-baseline="alphabetic">Client</text></g><g transform="translate(1382.4591191609716 190.53329467773528) rotate(0 55.52997589111328 22.5)"><text x="55.52997589111328" y="31.536" font-family="Virgil, Segoe UI Emoji" font-size="36px" fill="#1e1e1e" text-anchor="middle" style="white-space: pre;" direction="ltr" dominant-baseline="alphabetic">Server</text></g><g transform="translate(1363.1256230672216 1336.5332539876308) rotate(0 55.52997589111328 22.5)"><text x="55.52997589111328" y="31.536" font-family="Virgil, Segoe UI Emoji" font-size="36px" fill="#1e1e1e" text-anchor="middle" style="white-space: pre;" direction="ltr" dominant-baseline="alphabetic">Server</text></g><g transform="translate(1394.059094746909 613.3333435058603) rotate(0 55.52997589111328 22.5)"><text x="55.52997589111328" y="31.536" font-family="Virgil, Segoe UI Emoji" font-size="36px" fill="#1e1e1e" text-anchor="middle" style="white-space: pre;" direction="ltr" dominant-baseline="alphabetic">Server</text></g><g transform="translate(1374.725598653159 1759.3333028157558) rotate(0 55.52997589111328 22.5)"><text x="55.52997589111328" y="31.536" font-family="Virgil, Segoe UI Emoji" font-size="36px" fill="#1e1e1e" text-anchor="middle" style="white-space: pre;" direction="ltr" dominant-baseline="alphabetic">Server</text></g><g transform="translate(1363.392183939618 2206.6665751139326) rotate(0 55.52997589111328 22.5)"><text x="55.52997589111328" y="31.536" font-family="Virgil, Segoe UI Emoji" font-size="36px" fill="#1e1e1e" text-anchor="middle" style="white-space: pre;" direction="ltr" dominant-baseline="alphabetic">Server</text></g><g mask="url(#mask-giqa5B7wTaOIztlg7W4n9)" stroke-linecap="round"><g transform="translate(765.3224690755223 190.53329467773528) rotate(0 240.0286054408407 -2.7846174959217933)"><path d="M0.71 -1.12 C133.32 -5.57, 267.57 -4.53, 478.4 -5.03 M-0.8 -0.36 C166.47 -4.84, 332.26 -6.07, 480.86 -4.66" stroke="#1e1e1e" stroke-width="2" fill="none"></path></g><g transform="translate(765.3224690755223 190.53329467773528) rotate(0 240.0286054408407 -2.7846174959217933)"><path d="M458.15 2.51 C462.51 0.45, 468.79 0.58, 479.01 -5.85 M456.41 3.39 C466.19 1.29, 474.27 -1.45, 481.85 -5.42" stroke="#1e1e1e" stroke-width="2" fill="none"></path></g><g transform="translate(765.3224690755223 190.53329467773528) rotate(0 240.0286054408407 -2.7846174959217933)"><path d="M458.21 -14.59 C462.65 -11.86, 468.91 -6.93, 479.01 -5.85 M456.48 -13.71 C466.26 -9.9, 474.32 -6.73, 481.85 -5.42" stroke="#1e1e1e" stroke-width="2" fill="none"></path></g></g><mask id="mask-giqa5B7wTaOIztlg7W4n9"><rect x="0" y="0" fill="#fff" width="1345.3223673502616" height="294.5332845052094"></rect><rect x="853.060455322267" y="166.033299763998" fill="#000" width="304.52392578125" height="45" opacity="1"></rect></mask><g transform="translate(853.060455322267 166.033299763998) rotate(0 152.29061919409605 21.71537741781549)"><text x="152.261962890625" y="31.536" font-family="Virgil, Segoe UI Emoji" font-size="36px" fill="#1e1e1e" text-anchor="middle" style="white-space: pre;" direction="ltr" dominant-baseline="alphabetic">/auth/local/signin</text></g><g mask="url(#mask-xJgp6ggkC8TLOznyBQ15j)" stroke-linecap="round"><g transform="translate(745.9889729817723 1336.5332539876308) rotate(0 240.10614282001507 -2.048700470364338)"><path d="M-1.46 1.5 C111.39 -0.39, 226.74 -0.05, 481.67 -5.6 M0.61 0.72 C125.06 -4.37, 248.96 -4.38, 480.85 -3.67" stroke="#1e1e1e" stroke-width="2" fill="none"></path></g><g transform="translate(745.9889729817723 1336.5332539876308) rotate(0 240.10614282001507 -2.048700470364338)"><path d="M455.66 6.57 C461.08 1.74, 469.38 1.21, 482.78 -5.52 M458.04 5.66 C464.36 1.72, 470.06 0.71, 481.84 -3.29" stroke="#1e1e1e" stroke-width="2" fill="none"></path></g><g transform="translate(745.9889729817723 1336.5332539876308) rotate(0 240.10614282001507 -2.048700470364338)"><path d="M455.69 -10.53 C460.99 -11.34, 469.28 -7.84, 482.78 -5.52 M458.07 -11.44 C464.51 -10.95, 470.2 -7.54, 481.84 -3.29" stroke="#1e1e1e" stroke-width="2" fill="none"></path></g></g><mask id="mask-xJgp6ggkC8TLOznyBQ15j"><rect x="0" y="0" fill="#fff" width="1325.9888712565116" height="1440.533243815105"></rect><rect x="833.726959228517" y="1312.0332590738938" fill="#000" width="304.52392578125" height="45" opacity="1"></rect></mask><g transform="translate(833.726959228517 1312.0332590738938) rotate(0 152.36815657327043 22.451294443372717)"><text x="152.261962890625" y="31.536" font-family="Virgil, Segoe UI Emoji" font-size="36px" fill="#1e1e1e" text-anchor="middle" style="white-space: pre;" direction="ltr" dominant-baseline="alphabetic">/auth/local/signin</text></g><g mask="url(#mask-Y9h8WE_1Y-BEzszHdNhdx)" stroke-linecap="round"><g transform="translate(776.9224446614598 613.3333435058603) rotate(0 240.82193321839907 -1.9183630311104025)"><path d="M0.79 0.25 C187.38 -0.68, 370.67 0.66, 481.11 -2.79 M0.53 0.37 C184.46 1.96, 367.62 -0.23, 479.64 -4.72" stroke="#1e1e1e" stroke-width="2" fill="none"></path></g><g transform="translate(776.9224446614598 613.3333435058603) rotate(0 240.82193321839907 -1.9183630311104025)"><path d="M457.31 4.79 C467.4 -0.78, 473.64 -1.01, 480.92 -3.32 M457.01 4.92 C466.18 1.53, 474.5 -2.76, 479.22 -5.55" stroke="#1e1e1e" stroke-width="2" fill="none"></path></g><g transform="translate(776.9224446614598 613.3333435058603) rotate(0 240.82193321839907 -1.9183630311104025)"><path d="M456.82 -12.31 C466.95 -11.26, 473.37 -4.88, 480.92 -3.32 M456.52 -12.17 C466.05 -9.02, 474.56 -6.77, 479.22 -5.55" stroke="#1e1e1e" stroke-width="2" fill="none"></path></g></g><mask id="mask-Y9h8WE_1Y-BEzszHdNhdx"><rect x="0" y="0" fill="#fff" width="1356.9223429361991" height="717.3333333333344"></rect><rect x="895.0444335937514" y="588.833348592123" fill="#000" width="243.75592041015625" height="45" opacity="1"></rect></mask><g transform="translate(895.0444335937514 588.833348592123) rotate(0 122.69994428610755 22.58163188262688)"><text x="121.87796020507812" y="31.536" font-family="Virgil, Segoe UI Emoji" font-size="36px" fill="#1e1e1e" text-anchor="middle" style="white-space: pre;" direction="ltr" dominant-baseline="alphabetic">/auth/refresh</text></g><g mask="url(#mask-bb50eEPTrKt6khRMCeqfC)" stroke-linecap="round"><g transform="translate(757.5889485677098 1759.3333028157558) rotate(0 239.38502764227064 -1.0289221390714829)"><path d="M-0.71 1.29 C151.97 3.8, 303.18 3.05, 478.68 -2.94 M0.36 -0.33 C163.89 -3.67, 328.51 -4.64, 479.48 -4.7" stroke="#1e1e1e" stroke-width="2" fill="none"></path></g><g transform="translate(757.5889485677098 1759.3333028157558) rotate(0 239.38502764227064 -1.0289221390714829)"><path d="M455.19 5.39 C464.59 2.82, 472.34 0.7, 477.96 -3.47 M456.43 3.53 C463.54 0.04, 471.97 -2.44, 478.89 -5.5" stroke="#1e1e1e" stroke-width="2" fill="none"></path></g><g transform="translate(757.5889485677098 1759.3333028157558) rotate(0 239.38502764227064 -1.0289221390714829)"><path d="M455.15 -11.71 C464.73 -8.91, 472.49 -5.65, 477.96 -3.47 M456.39 -13.57 C463.68 -11.21, 472.13 -7.84, 478.89 -5.5" stroke="#1e1e1e" stroke-width="2" fill="none"></path></g></g><mask id="mask-bb50eEPTrKt6khRMCeqfC"><rect x="0" y="0" fill="#fff" width="1337.5888468424491" height="1863.33329264323"></rect><rect x="875.7109375000014" y="1734.8333079020188" fill="#000" width="243.75592041015625" height="45" opacity="1"></rect></mask><g transform="translate(875.7109375000014 1734.8333079020188) rotate(0 121.26303870997913 23.471072774665572)"><text x="121.87796020507812" y="31.536" font-family="Virgil, Segoe UI Emoji" font-size="36px" fill="#1e1e1e" text-anchor="middle" style="white-space: pre;" direction="ltr" dominant-baseline="alphabetic">/auth/refresh</text></g><g mask="url(#mask-g2sSU7TiyZ0JzK0I-VK9i)" stroke-linecap="round"><g transform="translate(746.2555338541688 2206.6665751139326) rotate(0 240.31903997315123 -1.3438204335097907)"><path d="M1.43 1.72 C178.26 -3.34, 359.92 -4.2, 480.66 -3.28 M-0.02 -0.32 C125.09 1.72, 251.57 1.95, 479.87 -4.4" stroke="#1e1e1e" stroke-width="2" fill="none"></path></g><g transform="translate(746.2555338541688 2206.6665751139326) rotate(0 240.31903997315123 -1.3438204335097907)"><path d="M458.23 6.65 C463.71 2.34, 474.79 -0.32, 480.63 -3.57 M456.55 4.3 C462.11 1.69, 469.23 0.79, 479.72 -4.87" stroke="#1e1e1e" stroke-width="2" fill="none"></path></g><g transform="translate(746.2555338541688 2206.6665751139326) rotate(0 240.31903997315123 -1.3438204335097907)"><path d="M457.84 -10.44 C463.58 -8.36, 474.81 -4.62, 480.63 -3.57 M456.17 -12.79 C461.76 -10.93, 468.97 -7.36, 479.72 -4.87" stroke="#1e1e1e" stroke-width="2" fill="none"></path></g></g><mask id="mask-g2sSU7TiyZ0JzK0I-VK9i"><rect x="0" y="0" fill="#fff" width="1326.255432128908" height="2310.6665649414067"></rect><rect x="872.8735020955423" y="2182.1665802001953" fill="#000" width="226.7639617919922" height="45" opacity="1"></rect></mask><g transform="translate(872.8735020955423 2182.1665802001953) rotate(0 113.70107173177769 23.156174480227264)"><text x="113.3819808959961" y="31.536" font-family="Virgil, Segoe UI Emoji" font-size="36px" fill="#1e1e1e" text-anchor="middle" style="white-space: pre;" direction="ltr" dominant-baseline="alphabetic">/auth/logout</text></g><g stroke-linecap="round"><g transform="translate(1254.6556599934902 245.19996643066497) rotate(0 -243.67903114787396 0.017759414204647328)"><path d="M0.71 1.66 C-193.57 3.22, -389.07 1.81, -488.07 -0.04 M0.36 0.57 C-128.15 -3.7, -256.75 -2.52, -486.61 -0.22" stroke="#1e1e1e" stroke-width="2" fill="none"></path></g><g transform="translate(1254.6556599934902 245.19996643066497) rotate(0 -243.67903114787396 0.017759414204647328)"><path d="M-462.35 -7.01 C-471.85 -4.51, -482.72 -2.68, -488.28 -0.26 M-462.77 -8.31 C-469.56 -7.33, -476.4 -3.62, -486.55 -0.47" stroke="#1e1e1e" stroke-width="2" fill="none"></path></g><g transform="translate(1254.6556599934902 245.19996643066497) rotate(0 -243.67903114787396 0.017759414204647328)"><path d="M-462.2 10.09 C-471.63 5.77, -482.56 0.77, -488.28 -0.26 M-462.61 8.79 C-469.35 5.27, -476.23 4.48, -486.55 -0.47" stroke="#1e1e1e" stroke-width="2" fill="none"></path></g></g><mask></mask><g stroke-linecap="round"><g transform="translate(1235.3221638997402 1391.1999257405605) rotate(0 -243.3244350799647 0.8603972505441106)"><path d="M0.64 0.7 C-176.44 3.33, -353 4, -487.29 -1.01 M-0.13 -0.39 C-107.49 3.55, -213.52 2.55, -485.94 -0.35" stroke="#1e1e1e" stroke-width="2" fill="none"></path></g><g transform="translate(1235.3221638997402 1391.1999257405605) rotate(0 -243.3244350799647 0.8603972505441106)"><path d="M-461.61 -7.83 C-471.61 -6.27, -481.03 -2.47, -486.68 -1.54 M-462.52 -9.13 C-468.34 -5.75, -472.61 -5.11, -485.08 -0.76" stroke="#1e1e1e" stroke-width="2" fill="none"></path></g><g transform="translate(1235.3221638997402 1391.1999257405605) rotate(0 -243.3244350799647 0.8603972505441106)"><path d="M-461.77 9.27 C-471.79 4.65, -481.15 2.27, -486.68 -1.54 M-462.69 7.97 C-468.54 7.6, -472.78 4.48, -485.08 -0.76" stroke="#1e1e1e" stroke-width="2" fill="none"></path></g></g><mask></mask><g stroke-linecap="round"><g transform="translate(1266.2556355794277 668.00001525879) rotate(0 -244.33734553779493 -0.27947589847940435)"><path d="M-0.65 -0.71 C-195.28 1.67, -388.37 0.7, -488.03 0.72 M-0.7 0.79 C-178.66 -2.13, -356.71 -2.26, -486.68 0.73" stroke="#1e1e1e" stroke-width="2" fill="none"></path></g><g transform="translate(1266.2556355794277 668.00001525879) rotate(0 -244.33734553779493 -0.27947589847940435)"><path d="M-464.09 -9 C-474.26 -4.56, -482.64 -2.17, -488.3 1.59 M-464.15 -7.22 C-471.85 -5.26, -479.63 -2.15, -486.71 1.6" stroke="#1e1e1e" stroke-width="2" fill="none"></path></g><g transform="translate(1266.2556355794277 668.00001525879) rotate(0 -244.33734553779493 -0.27947589847940435)"><path d="M-463.84 8.1 C-474.17 5.73, -482.65 1.31, -488.3 1.59 M-463.9 9.88 C-471.67 5.56, -479.54 2.39, -486.71 1.6" stroke="#1e1e1e" stroke-width="2" fill="none"></path></g></g><mask></mask><g stroke-linecap="round"><g transform="translate(1246.9221394856777 1813.9999745686855) rotate(0 -243.1234973460506 0.7462430977234362)"><path d="M-1.41 -0.04 C-166.86 -2.73, -333.83 -1, -485.53 -0.26 M0.05 -0.22 C-122.57 3.49, -246.6 4.57, -486.3 -0.17" stroke="#1e1e1e" stroke-width="2" fill="none"></path></g><g transform="translate(1246.9221394856777 1813.9999745686855) rotate(0 -243.1234973460506 0.7462430977234362)"><path d="M-464.35 -8.42 C-471.52 -6.86, -480.46 -2.01, -484.96 -0.47 M-462.62 -8.63 C-467.88 -6.48, -474.74 -3.12, -485.87 -0.37" stroke="#1e1e1e" stroke-width="2" fill="none"></path></g><g transform="translate(1246.9221394856777 1813.9999745686855) rotate(0 -243.1234973460506 0.7462430977234362)"><path d="M-464.6 8.68 C-471.62 4.4, -480.48 3.41, -484.96 -0.47 M-462.87 8.47 C-467.92 6.28, -474.72 5.31, -485.87 -0.37" stroke="#1e1e1e" stroke-width="2" fill="none"></path></g></g><mask></mask><g stroke-linecap="round"><g transform="translate(1235.5887247721366 2261.3332468668623) rotate(0 -243.36466230020642 -0.5183163439660348)"><path d="M-0.62 -1.01 C-126.92 0.63, -249.99 -0.35, -487.45 -1.41 M0.73 -0.35 C-191.42 -0.32, -382.44 -1.22, -487.28 0.37" stroke="#1e1e1e" stroke-width="2" fill="none"></path></g><g transform="translate(1235.5887247721366 2261.3332468668623) rotate(0 -243.36466230020642 -0.5183163439660348)"><path d="M-464.59 -9.55 C-471.58 -5.25, -474.67 -4.16, -488.21 -1.3 M-462.99 -8.77 C-473.08 -4.11, -481.84 -1.75, -488 0.81" stroke="#1e1e1e" stroke-width="2" fill="none"></path></g><g transform="translate(1235.5887247721366 2261.3332468668623) rotate(0 -243.36466230020642 -0.5183163439660348)"><path d="M-464.46 7.56 C-471.34 7.44, -474.46 4.11, -488.21 -1.3 M-462.86 8.34 C-473.01 6.26, -481.82 1.9, -488 0.81" stroke="#1e1e1e" stroke-width="2" fill="none"></path></g></g><mask></mask><g transform="translate(882.3863728841152 287.3333231608085) rotate(0 119.7359619140625 22.5)"><text x="119.7359619140625" y="31.536" font-family="Virgil, Segoe UI Emoji" font-size="36px" fill="#1e1e1e" text-anchor="middle" style="white-space: pre;" direction="ltr" dominant-baseline="alphabetic">Access Token</text></g><g transform="translate(865.7195027669277 1433.333282470704) rotate(0 119.7359619140625 22.5)"><text x="119.7359619140625" y="31.536" font-family="Virgil, Segoe UI Emoji" font-size="36px" fill="#1e1e1e" text-anchor="middle" style="white-space: pre;" direction="ltr" dominant-baseline="alphabetic">Access Token</text></g><g transform="translate(893.9863484700527 710.1333719889335) rotate(0 119.7359619140625 22.5)"><text x="119.7359619140625" y="31.536" font-family="Virgil, Segoe UI Emoji" font-size="36px" fill="#1e1e1e" text-anchor="middle" style="white-space: pre;" direction="ltr" dominant-baseline="alphabetic">Access Token</text></g><g transform="translate(874.6528523763027 1856.133331298829) rotate(0 119.7359619140625 22.5)"><text x="119.7359619140625" y="31.536" font-family="Virgil, Segoe UI Emoji" font-size="36px" fill="#1e1e1e" text-anchor="middle" style="white-space: pre;" direction="ltr" dominant-baseline="alphabetic">Access Token</text></g><g transform="translate(879.8104527791347 358.13355509440225) rotate(0 127.51195526123047 22.5)"><text x="127.51195526123047" y="31.536" font-family="Virgil, Segoe UI Emoji" font-size="36px" fill="#1e1e1e" text-anchor="middle" style="white-space: pre;" direction="ltr" dominant-baseline="alphabetic">Refresh Token</text></g><g transform="translate(855.1437047322597 1501.4667867024755) rotate(0 127.51195526123047 22.5)"><text x="127.51195526123047" y="31.536" font-family="Virgil, Segoe UI Emoji" font-size="36px" fill="#1e1e1e" text-anchor="middle" style="white-space: pre;" direction="ltr" dominant-baseline="alphabetic">Refresh Token</text></g><g transform="translate(891.4104283650722 780.9336039225273) rotate(0 127.51195526123047 22.5)"><text x="127.51195526123047" y="31.536" font-family="Virgil, Segoe UI Emoji" font-size="36px" fill="#1e1e1e" text-anchor="middle" style="white-space: pre;" direction="ltr" dominant-baseline="alphabetic">Refresh Token</text></g><g transform="translate(872.0769322713222 1926.9335632324228) rotate(0 127.51195526123047 22.5)"><text x="127.51195526123047" y="31.536" font-family="Virgil, Segoe UI Emoji" font-size="36px" fill="#1e1e1e" text-anchor="middle" style="white-space: pre;" direction="ltr" dominant-baseline="alphabetic">Refresh Token</text></g><g transform="translate(406.52262369791606 10) rotate(0 608.7953491210938 41.69996643066406)"><text x="0" y="58.44667294921872" font-family="Virgil, Segoe UI Emoji" font-size="66.71994628906246px" fill="#1e1e1e" text-anchor="start" style="white-space: pre;" direction="ltr" dominant-baseline="alphabetic">Simple Auth with RT (Refresh Token)</text></g><g transform="translate(253.85579427083212 1142.6666259765625) rotate(0 645.3189697265625 41.69996643066406)"><text x="0" y="58.44667294921872" font-family="Virgil, Segoe UI Emoji" font-size="66.71994628906246px" fill="#1e1e1e" text-anchor="start" style="white-space: pre;" direction="ltr" dominant-baseline="alphabetic">Complex Auth with logout (15 min delay)</text></g><g transform="translate(140.79998779296875 343.36670939127634) rotate(0 327.14990234375 22.5)"><text x="0" y="31.536" font-family="Virgil, Segoe UI Emoji" font-size="36px" fill="#1e1e1e" text-anchor="start" style="white-space: pre;" direction="ltr" dominant-baseline="alphabetic">Auth Token duration: 15m (standard)</text></g><g transform="translate(78.79986572265625 1497.3666483561192) rotate(0 327.14990234375 22.5)"><text x="0" y="31.536" font-family="Virgil, Segoe UI Emoji" font-size="36px" fill="#1e1e1e" text-anchor="start" style="white-space: pre;" direction="ltr" dominant-baseline="alphabetic">Auth Token duration: 15m (standard)</text></g><g transform="translate(10 742.1666971842451) rotate(0 341.5499267578125 22.5)"><text x="0" y="31.536" font-family="Virgil, Segoe UI Emoji" font-size="36px" fill="#1e1e1e" text-anchor="start" style="white-space: pre;" direction="ltr" dominant-baseline="alphabetic">Refresh Token duration: 1w (standard)</text></g><g transform="translate(43.99983723958303 1890.8332824707031) rotate(0 341.5499267578125 22.5)"><text x="0" y="31.536" font-family="Virgil, Segoe UI Emoji" font-size="36px" fill="#1e1e1e" text-anchor="start" style="white-space: pre;" direction="ltr" dominant-baseline="alphabetic">Refresh Token duration: 1w (standard)</text></g><g transform="translate(45.99975585937591 2343.499806722005) rotate(0 341.5499267578125 22.5)"><text x="0" y="31.536" font-family="Virgil, Segoe UI Emoji" font-size="36px" fill="#1e1e1e" text-anchor="start" style="white-space: pre;" direction="ltr" dominant-baseline="alphabetic">Refresh Token duration: 1w (standard)</text></g><g stroke-opacity="0" fill-opacity="0" stroke-linecap="round" transform="translate(2076.6677084249086 1217.2217463364577) rotate(0 138.37866158183533 138.37866158183533)"><path d="M126.94 -0.39 C140.89 -3.5, 158.22 1.51, 172.91 5.2 C187.59 8.89, 202.62 13.69, 215.05 21.75 C227.48 29.82, 238.58 41.66, 247.46 53.59 C256.35 65.52, 263.52 79.15, 268.38 93.31 C273.23 107.48, 276.53 123.46, 276.59 138.6 C276.65 153.74, 273.6 170.14, 268.75 184.16 C263.89 198.17, 256.55 210.9, 247.46 222.7 C238.38 234.5, 226.95 246.64, 214.26 254.96 C201.57 263.28, 186.01 269.1, 171.35 272.64 C156.68 276.18, 140.91 277.38, 126.25 276.21 C111.59 275.04, 97.01 271.69, 83.38 265.62 C69.75 259.55, 55.67 249.89, 44.47 239.78 C33.27 229.67, 23.16 217.94, 16.17 204.95 C9.19 191.97, 4.78 176.72, 2.57 161.86 C0.36 146.99, 0.59 130.83, 2.91 115.76 C5.22 100.69, 9.52 84.54, 16.46 71.43 C23.4 58.31, 33.34 47.09, 44.56 37.07 C55.78 27.04, 68.25 17.35, 83.78 11.28 C99.31 5.21, 126.57 1.84, 137.72 0.65 C148.87 -0.55, 150.52 2.01, 150.66 4.13 M75.13 13.69 C86.54 5.59, 103.33 4.18, 118.21 2.55 C133.09 0.93, 149.57 1.11, 164.4 3.94 C179.24 6.76, 194.2 12.45, 207.23 19.53 C220.26 26.61, 232.88 35.29, 242.6 46.42 C252.32 57.56, 259.75 72.49, 265.53 86.34 C271.3 100.2, 276.05 114.55, 277.23 129.54 C278.42 144.53, 276.66 161.55, 272.66 176.28 C268.66 191.01, 262 205.73, 253.25 217.94 C244.49 230.15, 232.24 240.57, 220.12 249.56 C208 258.54, 194.77 267.34, 180.54 271.87 C166.31 276.4, 149.64 277.57, 134.75 276.76 C119.85 275.96, 105.28 272.4, 91.18 267.03 C77.07 261.66, 61.67 253.77, 50.14 244.53 C38.61 235.29, 29.53 224.37, 21.99 211.58 C14.45 198.8, 8.54 182.53, 4.89 167.81 C1.25 153.08, -1.41 137.89, 0.14 123.22 C1.68 108.55, 7.82 93.42, 14.16 79.81 C20.51 66.19, 28.13 52.52, 38.22 41.54 C48.32 30.55, 68.09 17.79, 74.73 13.89 C81.37 9.98, 76.78 16.07, 78.08 18.09" stroke="#1e1e1e" stroke-width="1" fill="none"></path></g><g transform="translate(2097.855726454718 1399.115131782739) rotate(0 117.1906435520259 29.629546531281676)"><text x="117.19064355202579" y="41.52877241824436" font-family="Virgil, Segoe UI Emoji" font-size="47.40727445005063px" fill="#1e1e1e" text-anchor="middle" style="white-space: pre;" direction="ltr" dominant-baseline="alphabetic">Database</text></g><g stroke-linecap="round"><g transform="translate(2155.993935856479 1295.62387718026) rotate(0 50.47870531735475 25.591610354427303)"><path d="M-0.43 -0.35 C-0.56 10.76, -1.91 54, -1.01 67.42 C-0.11 80.84, 2.05 76.44, 4.97 80.17 C7.89 83.9, 11.17 87.31, 16.52 89.82 C21.87 92.33, 29.57 94.3, 37.08 95.23 C44.58 96.16, 53.83 96.87, 61.52 95.42 C69.21 93.97, 77.13 89.62, 83.21 86.56 C89.28 83.49, 95.3 80.56, 97.98 77.01 C100.67 73.46, 98.63 74.07, 99.32 65.27 C100.01 56.46, 101.73 37.45, 102.13 24.18 C102.54 10.91, 101.96 -5.9, 101.75 -14.36 C101.54 -22.82, 102.81 -22.84, 100.86 -26.6 C98.9 -30.36, 96.3 -33.95, 90 -36.92 C83.7 -39.89, 71.93 -43.42, 63.05 -44.4 C54.16 -45.38, 44.68 -44.13, 36.7 -42.82 C28.72 -41.52, 20.78 -38.94, 15.19 -36.56 C9.59 -34.19, 5.77 -31.97, 3.12 -28.55 C0.46 -25.14, -0.37 -20.95, -0.75 -16.05 C-1.13 -11.14, 0.76 -1.62, 0.83 0.87 M1.55 -1.58 C1.79 9.09, 0.63 52.16, 1.17 65.48 C1.71 78.79, 2.27 74.09, 4.77 78.3 C7.27 82.51, 11.04 87.96, 16.17 90.74 C21.31 93.53, 27.84 94.42, 35.59 95.01 C43.34 95.59, 54.65 95.34, 62.68 94.28 C70.72 93.21, 78.04 91.53, 83.81 88.61 C89.58 85.68, 94.5 80.78, 97.32 76.71 C100.14 72.63, 100.36 73.06, 100.74 64.16 C101.12 55.25, 99.38 36.23, 99.61 23.27 C99.83 10.3, 102.13 -5.34, 102.1 -13.64 C102.07 -21.93, 101.32 -22.48, 99.41 -26.49 C97.5 -30.51, 96.82 -34.67, 90.62 -37.73 C84.42 -40.79, 71.65 -43.96, 62.21 -44.82 C52.77 -45.69, 42.15 -44, 33.97 -42.92 C25.8 -41.85, 18.48 -40.84, 13.18 -38.36 C7.87 -35.88, 4.15 -31.78, 2.14 -28.03 C0.12 -24.28, 1.47 -20.81, 1.1 -15.88 C0.72 -10.94, 0.06 -1.1, -0.12 1.59" stroke="#1e1e1e" stroke-width="1" fill="none"></path></g></g><mask></mask><g stroke-linecap="round"><g transform="translate(2156.7722247020247 1272.4225522963216) rotate(0 50.86554552255279 10.619141408375071)"><path d="M-1.01 0.34 C1.06 2.58, 5.99 9.83, 11.98 13.09 C17.97 16.35, 26.47 18.76, 34.94 19.89 C43.4 21.01, 54.26 20.86, 62.76 19.85 C71.25 18.83, 79.47 16.77, 85.91 13.81 C92.34 10.85, 98.66 3.95, 101.37 2.09 M0.66 -0.53 C2.7 1.42, 5.5 7.85, 11.6 11.44 C17.69 15.03, 28.67 19.54, 37.24 21.02 C45.81 22.51, 54.56 21.49, 62.99 20.34 C71.43 19.18, 81.22 17.36, 87.84 14.1 C94.47 10.84, 100.19 2.91, 102.74 0.79" stroke="#1e1e1e" stroke-width="1" fill="none"></path></g></g><mask></mask><g stroke-linecap="round"><g transform="translate(2155.9392778258616 1294.379895511781) rotate(0 51.15977621389629 11.229983508979785)"><path d="M1.08 0.9 C2.88 2.82, 3.95 8.82, 9.77 11.85 C15.6 14.87, 27.28 17.57, 36.04 19.07 C44.79 20.56, 53.92 21.74, 62.3 20.82 C70.68 19.89, 79.68 16.53, 86.32 13.51 C92.96 10.48, 99.79 4.4, 102.13 2.67 M0.19 0.32 C2.43 2.39, 6.05 9.96, 11.89 13.2 C17.74 16.44, 26.86 18.34, 35.26 19.77 C43.66 21.21, 54.04 22.84, 62.29 21.82 C70.55 20.79, 78.49 16.99, 84.81 13.64 C91.14 10.28, 97.64 3.6, 100.25 1.66" stroke="#1e1e1e" stroke-width="1" fill="none"></path></g></g><mask></mask><g stroke-linecap="round"><g transform="translate(2155.2262246777063 1310.2879874476284) rotate(0 50.03957039563056 10.369000723863564)"><path d="M-1.12 -0.35 C0.51 1.34, 4.76 7.63, 10.87 11.03 C16.99 14.42, 26.94 18.46, 35.58 20.04 C44.22 21.62, 54.13 21.51, 62.71 20.51 C71.3 19.52, 80.81 16.98, 87.08 14.08 C93.36 11.18, 97.85 5.17, 100.36 3.11 M0.49 -1.58 C1.86 0.14, 4.23 8.15, 9.91 11.95 C15.59 15.75, 25.73 19.68, 34.56 21.25 C43.4 22.82, 54.35 22.48, 62.92 21.35 C71.49 20.23, 79.6 17.68, 85.98 14.51 C92.36 11.34, 98.34 4.17, 101.2 2.35" stroke="#1e1e1e" stroke-width="1" fill="none"></path></g></g><mask></mask><g stroke-opacity="0" fill-opacity="0" stroke-linecap="round" transform="translate(2084.0012858988675 1637.8884028305993) rotate(0 138.37866158183533 138.37866158183533)"><path d="M110.39 3.35 C123.94 -1.76, 141.4 -1.67, 156.39 0.27 C171.39 2.21, 187.06 8.2, 200.35 15.01 C213.63 21.83, 225.71 30.63, 236.1 41.18 C246.48 51.73, 255.89 64.72, 262.65 78.31 C269.41 91.9, 274.81 107.88, 276.64 122.73 C278.48 137.58, 277.03 152.7, 273.66 167.39 C270.3 182.09, 264.08 197.88, 256.45 210.9 C248.82 223.92, 239.16 235.98, 227.89 245.5 C216.63 255.02, 203.03 262.98, 188.86 268.03 C174.7 273.09, 158.08 275.26, 142.9 275.83 C127.72 276.4, 111.92 275.72, 97.78 271.45 C83.63 267.19, 70.25 259.03, 58.01 250.24 C45.78 241.46, 32.97 230.8, 24.37 218.74 C15.77 206.69, 10.45 192.51, 6.41 177.93 C2.37 163.36, -0.26 146.31, 0.14 131.29 C0.55 116.27, 3.36 101.71, 8.84 87.82 C14.31 73.92, 23.21 59.49, 32.97 47.93 C42.73 36.37, 53.88 26.09, 67.39 18.46 C80.9 10.82, 105.76 4.45, 114.04 2.12 C122.32 -0.2, 116.66 2.22, 117.07 4.52 M98.46 5.12 C111.76 -1.11, 128.95 -0.25, 143.97 0.55 C158.99 1.36, 174.83 4.74, 188.59 9.95 C202.34 15.16, 215.05 22.16, 226.5 31.84 C237.95 41.52, 249.43 55.19, 257.27 68.02 C265.1 80.86, 270.23 94.66, 273.51 108.87 C276.78 123.09, 278.72 138.56, 276.93 153.3 C275.14 168.03, 269.17 183.5, 262.76 197.27 C256.34 211.04, 248.61 225.28, 238.44 235.92 C228.26 246.56, 215.45 254.53, 201.71 261.11 C187.97 267.68, 170.92 273.17, 155.99 275.37 C141.07 277.57, 126.88 277.33, 112.17 274.32 C97.47 271.31, 81.02 265.12, 67.76 257.33 C54.5 249.54, 42.05 238.74, 32.6 227.58 C23.15 216.42, 16.35 204.33, 11.05 190.38 C5.74 176.44, 1.74 158.76, 0.76 143.92 C-0.23 129.07, 0.86 115.27, 5.14 101.31 C9.41 87.35, 17.7 72.45, 26.4 60.15 C35.11 47.85, 45.29 36.29, 57.37 27.52 C69.45 18.76, 92.02 10.76, 98.87 7.55 C105.73 4.34, 98.11 6.14, 98.5 8.26" stroke="#1e1e1e" stroke-width="1" fill="none"></path></g><g transform="translate(2105.189303928676 1819.7817882768804) rotate(0 117.1906435520259 29.629546531281676)"><text x="117.19064355202579" y="41.52877241824436" font-family="Virgil, Segoe UI Emoji" font-size="47.40727445005063px" fill="#1e1e1e" text-anchor="middle" style="white-space: pre;" direction="ltr" dominant-baseline="alphabetic">Database</text></g><g stroke-linecap="round"><g transform="translate(2163.327513330438 1716.2905336744016) rotate(0 50.75213124937204 26.022029766144783)"><path d="M-0.07 -0.5 C0.13 10.72, 0.21 53.77, 0.69 67.15 C1.18 80.53, -0.13 76.1, 2.81 79.79 C5.75 83.48, 12.61 86.61, 18.34 89.3 C24.06 91.98, 29.89 94.68, 37.15 95.9 C44.42 97.12, 54.13 98.1, 61.94 96.63 C69.75 95.16, 78.18 90.44, 84.03 87.09 C89.88 83.73, 94.11 80.07, 97.03 76.49 C99.95 72.92, 100.63 74, 101.56 65.62 C102.49 57.24, 102.5 39.53, 102.61 26.22 C102.72 12.9, 102.67 -5.25, 102.22 -14.29 C101.77 -23.32, 101.94 -24.35, 99.91 -27.98 C97.89 -31.61, 96.23 -33.24, 90.07 -36.08 C83.92 -38.92, 71.94 -43.95, 62.98 -45.04 C54.03 -46.13, 44.3 -43.84, 36.32 -42.62 C28.33 -41.41, 20.79 -39.97, 15.06 -37.74 C9.34 -35.52, 4.33 -32.86, 1.97 -29.26 C-0.39 -25.65, 1.29 -20.81, 0.89 -16.12 C0.49 -11.42, -0.17 -3.91, -0.44 -1.06 M-1.57 -1.81 C-1.43 9.64, -1.01 55.47, 0.11 68.73 C1.23 81.98, 2 74.19, 5.14 77.72 C8.28 81.26, 13.86 86.89, 18.95 89.94 C24.05 92.99, 28.32 95, 35.71 96.03 C43.11 97.06, 55.09 97.83, 63.32 96.12 C71.55 94.41, 79.64 89.12, 85.07 85.76 C90.5 82.39, 93.3 79.43, 95.88 75.92 C98.45 72.41, 99.75 72.95, 100.49 64.69 C101.23 56.43, 99.95 39.41, 100.34 26.38 C100.73 13.34, 102.6 -4.36, 102.81 -13.52 C103.03 -22.69, 103.64 -24.78, 101.63 -28.6 C99.62 -32.42, 97.32 -34.19, 90.74 -36.44 C84.15 -38.7, 71.06 -41.11, 62.11 -42.14 C53.17 -43.17, 45.24 -43.56, 37.05 -42.62 C28.87 -41.68, 18.49 -38.75, 12.99 -36.5 C7.49 -34.25, 6.22 -32.52, 4.04 -29.1 C1.87 -25.68, 0.35 -20.6, -0.06 -15.98 C-0.47 -11.35, 1.7 -3.97, 1.6 -1.36" stroke="#1e1e1e" stroke-width="1" fill="none"></path></g></g><mask></mask><g stroke-linecap="round"><g transform="translate(2164.1058021759827 1693.089208790463) rotate(0 50.89548603920343 10.553479527692843)"><path d="M0.69 0.07 C2.34 2.27, 3.81 9.5, 9.82 12.71 C15.83 15.93, 27.92 18.06, 36.76 19.36 C45.59 20.66, 54.58 21.24, 62.84 20.52 C71.1 19.79, 79.77 18, 86.33 15.02 C92.89 12.04, 99.71 4.77, 102.19 2.62 M-0.4 -0.94 C1.61 0.95, 5.84 7.34, 11.96 10.86 C18.09 14.39, 27.83 18.47, 36.36 20.22 C44.88 21.97, 55.04 22.68, 63.11 21.36 C71.19 20.03, 78.62 15.58, 84.82 12.28 C91.03 8.99, 97.53 2.94, 100.34 1.6" stroke="#1e1e1e" stroke-width="1" fill="none"></path></g></g><mask></mask><g stroke-linecap="round"><g transform="translate(2163.2728552998205 1715.0465520059224) rotate(0 50.69252701086998 11.037083312901359)"><path d="M-1.08 0.52 C0.74 2.39, 5.39 8.12, 11.59 11.32 C17.79 14.52, 27.6 17.95, 36.12 19.74 C44.64 21.52, 54.21 22.98, 62.72 22.03 C71.22 21.08, 80.73 17.35, 87.14 14.04 C93.55 10.73, 98.61 3.91, 101.18 2.15 M0.56 -0.25 C2.21 1.74, 5.21 8.89, 11.01 12.4 C16.81 15.91, 26.73 19.53, 35.38 20.79 C44.03 22.06, 54.49 21.06, 62.93 20 C71.38 18.94, 79.48 17.63, 86.07 14.45 C92.66 11.26, 100.11 2.86, 102.46 0.88" stroke="#1e1e1e" stroke-width="1" fill="none"></path></g></g><mask></mask><g stroke-linecap="round"><g transform="translate(2162.5598021516644 1730.95464394177) rotate(0 51.09849924502964 10.762734941564645)"><path d="M0.7 -0.87 C2.7 0.99, 5.07 8.01, 10.95 11.69 C16.84 15.38, 27.23 19.69, 36 21.25 C44.76 22.81, 55.18 22.32, 63.54 21.04 C71.89 19.76, 79.63 16.5, 86.14 13.57 C92.65 10.64, 99.85 5.1, 102.59 3.47 M-0.4 1.28 C1.55 3.26, 4.1 9.94, 10.03 12.97 C15.97 16, 26.18 17.91, 35.2 19.44 C44.22 20.97, 55.35 23.12, 64.18 22.16 C73.01 21.21, 82.06 16.94, 88.19 13.72 C94.32 10.51, 98.95 4.67, 100.95 2.88" stroke="#1e1e1e" stroke-width="1" fill="none"></path></g></g><mask></mask><g stroke-opacity="0" fill-opacity="0" stroke-linecap="round" transform="translate(2107.3342123311595 2079.8886266261716) rotate(0 138.37866158183533 138.3786615818354)"><path d="M134.8 -0.16 C148.76 -2.66, 165.11 2.64, 179.52 7.34 C193.92 12.03, 208.95 19.18, 221.23 27.98 C233.5 36.78, 244.85 48.12, 253.18 60.14 C261.52 72.15, 267.4 85.63, 271.24 100.09 C275.08 114.55, 276.89 131.85, 276.23 146.9 C275.56 161.95, 272.99 176.52, 267.23 190.38 C261.48 204.24, 251.52 218.59, 241.69 230.06 C231.87 241.53, 221.12 251.93, 208.28 259.2 C195.45 266.48, 179.7 270.92, 164.69 273.71 C149.68 276.5, 133.12 278, 118.23 275.94 C103.33 273.89, 88.69 268.36, 75.35 261.39 C62 254.41, 48.39 244.82, 38.16 234.1 C27.93 223.38, 20.02 210.53, 13.95 197.07 C7.88 183.6, 3.4 168.16, 1.76 153.31 C0.12 138.45, 1.09 122.64, 4.14 107.93 C7.18 93.23, 12.24 77.76, 20 65.09 C27.77 52.42, 39.18 41.18, 50.74 31.9 C62.31 22.62, 74.28 14.62, 89.4 9.42 C104.53 4.22, 131.72 1.81, 141.49 0.7 C151.25 -0.4, 148.1 0.53, 147.98 2.8 M205.55 15.77 C219.03 20.51, 229.73 32.72, 239.9 44.02 C250.07 55.32, 260.26 69.87, 266.58 83.56 C272.89 97.24, 276.93 111.33, 277.8 126.14 C278.67 140.95, 275.57 157.68, 271.79 172.42 C268.01 187.15, 263.35 202.08, 255.12 214.54 C246.88 227.01, 234.54 238.27, 222.37 247.21 C210.21 256.16, 195.97 263.18, 182.12 268.21 C168.27 273.23, 153.99 277.42, 139.27 277.36 C124.55 277.29, 108.19 272.59, 93.8 267.82 C79.4 263.04, 64.58 257.49, 52.9 248.7 C41.22 239.91, 31.78 227.66, 23.72 215.07 C15.66 202.48, 8.22 187.66, 4.53 173.18 C0.85 158.69, 0.41 143.34, 1.6 128.16 C2.8 112.98, 5.92 95.87, 11.68 82.08 C17.44 68.29, 25.96 56.25, 36.16 45.43 C46.36 34.62, 59.63 24.36, 72.9 17.19 C86.16 10.01, 100.95 5.02, 115.73 2.38 C130.52 -0.26, 146.85 -0.86, 161.6 1.33 C176.36 3.52, 197.14 12.32, 204.25 15.52 C211.35 18.72, 205.21 18.4, 204.23 20.52" stroke="#1e1e1e" stroke-width="1" fill="none"></path></g><g transform="translate(2128.522230360968 2261.7820120724527) rotate(0 117.1906435520259 29.62954653128162)"><text x="117.19064355202579" y="41.52877241824436" font-family="Virgil, Segoe UI Emoji" font-size="47.40727445005063px" fill="#1e1e1e" text-anchor="middle" style="white-space: pre;" direction="ltr" dominant-baseline="alphabetic">Database</text></g><g stroke-linecap="round"><g transform="translate(2186.6604397627298 2158.290757469974) rotate(0 50.45678986172925 26.45980133798537)"><path d="M0.75 0.03 C0.72 10.97, -0.97 53.28, -0.25 66.64 C0.46 79.99, 1.87 76.03, 5.05 80.14 C8.23 84.26, 13.39 88.7, 18.82 91.33 C24.25 93.97, 30.59 95.32, 37.62 95.97 C44.65 96.62, 53.25 96.59, 61 95.25 C68.74 93.91, 78.11 91.16, 84.11 87.93 C90.1 84.7, 94.13 79.54, 96.97 75.86 C99.81 72.17, 100.25 74.29, 101.17 65.82 C102.09 57.35, 102.51 38.51, 102.49 25.04 C102.48 11.57, 101.23 -6.14, 101.07 -14.99 C100.91 -23.84, 103.6 -24.21, 101.55 -28.05 C99.51 -31.89, 95.3 -35.52, 88.8 -38.01 C82.3 -40.5, 71.47 -42.23, 62.56 -42.99 C53.65 -43.75, 43.44 -43.59, 35.33 -42.56 C27.22 -41.54, 19.36 -39.13, 13.9 -36.84 C8.45 -34.55, 5.02 -32.41, 2.62 -28.85 C0.21 -25.28, -0.17 -20.15, -0.52 -15.47 C-0.86 -10.79, 0.33 -3.42, 0.56 -0.78 M-0.31 -1 C-0.52 10.62, -2.2 54.73, -1.33 67.94 C-0.47 81.15, 2 74.69, 4.89 78.26 C7.78 81.83, 10.77 86.41, 16.02 89.39 C21.28 92.37, 28.78 95.37, 36.42 96.14 C44.07 96.91, 54.36 95.53, 61.88 94.01 C69.4 92.5, 75.88 89.61, 81.53 87.04 C87.17 84.47, 92.71 82.28, 95.78 78.61 C98.84 74.93, 99.18 74.01, 99.91 65 C100.64 55.99, 99.96 37.84, 100.15 24.58 C100.35 11.31, 101.01 -5.72, 101.06 -14.6 C101.11 -23.48, 102.51 -25.18, 100.47 -28.7 C98.43 -32.22, 94.69 -33.4, 88.8 -35.73 C82.91 -38.06, 74 -41.54, 65.13 -42.68 C56.25 -43.81, 43.92 -43.18, 35.54 -42.53 C27.17 -41.88, 20.58 -41.13, 14.88 -38.78 C9.19 -36.44, 3.61 -32.44, 1.37 -28.47 C-0.87 -24.51, 1.77 -19.58, 1.45 -14.99 C1.13 -10.4, -0.59 -3.24, -0.53 -0.94" stroke="#1e1e1e" stroke-width="1" fill="none"></path></g></g><mask></mask><g stroke-linecap="round"><g transform="translate(2187.4387286082747 2135.0894325860354) rotate(0 51.00704013416612 10.157796080038452)"><path d="M-0.25 -0.44 C1.63 1.73, 5.8 9.42, 12.05 13.06 C18.3 16.71, 28.7 20.15, 37.24 21.4 C45.78 22.65, 55.28 21.88, 63.3 20.59 C71.33 19.3, 78.89 16.49, 85.38 13.64 C91.88 10.78, 99.64 5.49, 102.27 3.47 M1.82 -1.72 C3.58 0.12, 5.83 7.83, 11.71 11.4 C17.59 14.97, 28.4 17.99, 37.09 19.67 C45.77 21.35, 55.5 22.44, 63.83 21.47 C72.15 20.5, 80.94 16.93, 87.04 13.83 C93.15 10.74, 98.03 4.65, 100.45 2.89" stroke="#1e1e1e" stroke-width="1" fill="none"></path></g></g><mask></mask><g stroke-linecap="round"><g transform="translate(2186.6057817321125 2157.0467758014947) rotate(0 51.3356552942289 11.226816316530744)"><path d="M1.16 0.87 C3.21 3.17, 6.17 10.2, 12.07 13.36 C17.98 16.52, 28.3 18.6, 36.58 19.81 C44.87 21.03, 53.34 21.46, 61.77 20.64 C70.21 19.82, 80.66 18.07, 87.22 14.88 C93.78 11.69, 98.62 3.38, 101.12 1.51 M0.3 0.28 C2.33 2.32, 5.78 8.41, 11.74 11.85 C17.71 15.28, 27.8 19.29, 36.09 20.91 C44.38 22.52, 53.14 22.41, 61.49 21.55 C69.84 20.69, 79.37 18.73, 86.18 15.73 C93 12.73, 99.52 5.71, 102.37 3.57" stroke="#1e1e1e" stroke-width="1" fill="none"></path></g></g><mask></mask><g stroke-linecap="round"><g transform="translate(2185.8927285839563 2172.9548677373423) rotate(0 51.27326018361441 11.513612129002752)"><path d="M1.18 1.17 C2.89 2.98, 5.77 8.65, 11.42 11.77 C17.06 14.89, 26.35 18.18, 35.05 19.86 C43.75 21.55, 55.11 23.04, 63.61 21.89 C72.12 20.73, 79.64 15.96, 86.07 12.93 C92.51 9.89, 99.48 5.39, 102.21 3.67 M0.33 0.73 C1.83 2.64, 4.56 9.71, 10.74 13.08 C16.93 16.46, 28.49 19.87, 37.42 20.99 C46.34 22.1, 55.85 21.16, 64.29 19.79 C72.74 18.42, 82.08 15.52, 88.1 12.75 C94.11 9.98, 98.38 5.11, 100.37 3.19" stroke="#1e1e1e" stroke-width="1" fill="none"></path></g></g><mask></mask><g stroke-opacity="0" fill-opacity="0" stroke-linecap="round" transform="translate(960.0012452087649 2711.2217361639323) rotate(0 138.37866158183533 138.3786615818354)"><path d="M82.72 11.75 C94.72 3.95, 110.23 2.33, 125.17 1.19 C140.12 0.05, 157.7 1.51, 172.39 4.9 C187.08 8.29, 201.03 13.48, 213.32 21.53 C225.6 29.59, 236.88 41.43, 246.1 53.22 C255.31 65.01, 263.65 78.31, 268.61 92.25 C273.57 106.19, 275.58 121.87, 275.87 136.88 C276.16 151.89, 274.82 168.01, 270.35 182.3 C265.88 196.58, 258.19 210.68, 249.06 222.59 C239.92 234.5, 228.28 245.58, 215.54 253.76 C202.8 261.94, 187.19 267.81, 172.6 271.66 C158.01 275.5, 142.94 277.74, 128 276.82 C113.06 275.9, 96.68 272.05, 82.95 266.16 C69.22 260.26, 56.5 251.69, 45.63 241.46 C34.75 231.22, 24.99 217.91, 17.71 204.74 C10.42 191.57, 4.41 177.16, 1.91 162.44 C-0.58 147.72, 0.34 131.17, 2.74 116.43 C5.14 101.69, 9.53 87.28, 16.3 74.02 C23.06 60.76, 31.29 47.53, 43.33 36.86 C55.37 26.19, 79.51 14.44, 88.55 9.99 C97.59 5.54, 96.76 8.24, 97.56 10.17 M129.54 -0.29 C143.28 -3.53, 159.93 -0.24, 174.68 3.98 C189.43 8.19, 205.44 16.57, 218.03 25.02 C230.62 33.48, 241.55 42.57, 250.22 54.73 C258.88 66.88, 265.4 83.24, 270.04 97.95 C274.68 112.66, 278.3 128.05, 278.04 142.99 C277.78 157.92, 273.72 173.49, 268.48 187.58 C263.23 201.66, 256.13 216.15, 246.57 227.48 C237.01 238.81, 224.14 247.76, 211.13 255.56 C198.11 263.36, 183.03 270.77, 168.47 274.28 C153.9 277.78, 138.54 278.27, 123.73 276.59 C108.92 274.92, 93.14 270.79, 79.58 264.23 C66.03 257.68, 53.17 247.97, 42.39 237.26 C31.61 226.54, 21.54 212.98, 14.89 199.95 C8.23 186.93, 4.44 173.83, 2.47 159.09 C0.49 144.36, 0.19 126.51, 3.05 111.55 C5.9 96.58, 12.21 82.06, 19.62 69.31 C27.02 56.56, 36.22 45.07, 47.46 35.03 C58.69 24.98, 73.02 14.71, 87.03 9.04 C101.03 3.37, 124.04 2.16, 131.5 1 C138.96 -0.17, 132.01 -0.27, 131.8 2.04" stroke="#1e1e1e" stroke-width="1" fill="none"></path></g><g transform="translate(981.1892632385734 2893.1151216102135) rotate(0 117.19064355202579 29.62954653128164)"><text x="117.19064355202579" y="41.52877241824436" font-family="Virgil, Segoe UI Emoji" font-size="47.40727445005063px" fill="#1e1e1e" text-anchor="middle" style="white-space: pre;" direction="ltr" dominant-baseline="alphabetic">Database</text></g><g stroke-linecap="round"><g transform="translate(1039.3274726403351 2789.6238670077346) rotate(0 50.63379061948626 25.909794565666743)"><path d="M0.83 0.87 C0.94 11.93, -0.96 52.75, -0.32 66 C0.32 79.24, 1.5 76.32, 4.67 80.35 C7.84 84.37, 13.4 87.67, 18.7 90.15 C24 92.64, 29.15 94.43, 36.47 95.27 C43.79 96.1, 54.91 96.73, 62.64 95.18 C70.36 93.63, 77.18 88.87, 82.84 86 C88.49 83.12, 93.65 81.26, 96.54 77.9 C99.44 74.55, 99.39 74.54, 100.18 65.88 C100.98 57.22, 101.08 39.35, 101.33 25.94 C101.59 12.53, 101.92 -5.69, 101.72 -14.58 C101.52 -23.47, 102.13 -23.54, 100.14 -27.4 C98.16 -31.26, 95.8 -35.04, 89.8 -37.73 C83.8 -40.43, 73.05 -42.7, 64.15 -43.57 C55.24 -44.44, 44.76 -43.92, 36.35 -42.97 C27.94 -42.02, 19.23 -40.55, 13.68 -37.88 C8.14 -35.2, 5.34 -30.64, 3.09 -26.94 C0.85 -23.23, 0.58 -19.99, 0.21 -15.64 C-0.16 -11.28, 0.97 -3.32, 0.87 -0.82 M-0.19 0.29 C-0.18 11.49, -2.18 53.92, -1.43 66.97 C-0.68 80.02, 1.43 74.52, 4.31 78.57 C7.19 82.62, 10.17 88.5, 15.84 91.25 C21.51 94, 30.85 94.62, 38.33 95.07 C45.81 95.51, 53.23 95.13, 60.72 93.91 C68.21 92.69, 76.9 90.39, 83.25 87.75 C89.59 85.11, 95.65 81.85, 98.79 78.07 C101.92 74.29, 101.52 73.77, 102.06 65.09 C102.6 56.4, 102.05 39.13, 102.05 25.95 C102.04 12.78, 102.06 -5.02, 102.05 -13.97 C102.04 -22.91, 103.94 -24.16, 101.98 -27.72 C100.03 -31.27, 96.68 -32.67, 90.33 -35.31 C83.98 -37.95, 72.75 -42.26, 63.88 -43.56 C55.01 -44.87, 45.33 -44.29, 37.11 -43.14 C28.88 -42, 20.38 -39.02, 14.55 -36.7 C8.71 -34.38, 4.71 -32.79, 2.1 -29.22 C-0.5 -25.64, -0.74 -19.95, -1.1 -15.25 C-1.46 -10.54, -0.22 -3.68, -0.05 -0.99" stroke="#1e1e1e" stroke-width="1" fill="none"></path></g></g><mask></mask><g stroke-linecap="round"><g transform="translate(1040.10576148588 2766.422542123796) rotate(0 50.92993763892048 10.544825312260116)"><path d="M-0.32 -1.08 C1.49 0.98, 5.43 9.72, 11.67 13.27 C17.91 16.82, 28.7 19.12, 37.12 20.22 C45.53 21.32, 53.84 20.99, 62.16 19.89 C70.47 18.78, 80.55 16.63, 87.02 13.57 C93.5 10.51, 98.72 3.2, 101 1.53 M1.72 0.97 C3.36 2.64, 5.27 8.28, 11.13 11.71 C16.99 15.14, 28.41 20.08, 36.9 21.53 C45.4 22.98, 53.91 21.7, 62.07 20.4 C70.24 19.1, 79.2 16.53, 85.88 13.73 C92.57 10.93, 99.67 5.43, 102.18 3.6" stroke="#1e1e1e" stroke-width="1" fill="none"></path></g></g><mask></mask><g stroke-linecap="round"><g transform="translate(1039.272814609718 2788.3798853392555) rotate(0 50.72043383853577 11.233915487817512)"><path d="M0.77 1.07 C2.82 3.28, 6.18 9.17, 11.95 12.18 C17.73 15.18, 26.86 17.71, 35.43 19.11 C44.01 20.51, 55 21.6, 63.41 20.58 C71.83 19.55, 79.74 15.78, 85.95 12.95 C92.16 10.11, 98.15 5.1, 100.7 3.56 M-0.28 0.59 C1.73 3.1, 5.79 10.5, 11.56 13.71 C17.33 16.91, 25.6 18.54, 34.34 19.83 C43.08 21.12, 55.07 22.63, 63.99 21.45 C72.92 20.28, 81.62 15.85, 87.91 12.78 C94.19 9.71, 99.41 4.66, 101.72 3.03" stroke="#1e1e1e" stroke-width="1" fill="none"></path></g></g><mask></mask><g stroke-linecap="round"><g transform="translate(1038.5597614615617 2804.287977275103) rotate(0 51.335297141541446 10.357870751788766)"><path d="M1.06 -0.01 C2.64 1.65, 4.33 7.76, 10.27 11.06 C16.21 14.37, 28.01 18.32, 36.69 19.8 C45.37 21.28, 54.18 20.76, 62.34 19.95 C70.5 19.15, 79.17 17.68, 85.65 14.97 C92.13 12.27, 98.61 5.64, 101.22 3.73 M0.15 -1.07 C2.06 1.22, 6.63 8.35, 12.65 12.01 C18.67 15.67, 27.98 19.47, 36.26 20.89 C44.54 22.3, 53.82 21.95, 62.36 20.5 C70.89 19.05, 80.75 15.08, 87.45 12.21 C94.14 9.34, 100.11 4.88, 102.52 3.28" stroke="#1e1e1e" stroke-width="1" fill="none"></path></g></g><mask></mask><g stroke-linecap="round"><g transform="translate(1612.379947480702 1357.1315799975155) rotate(0 219.83036445541393 -1.3168122909767135)"><path d="M-1.88 1.05 C169.95 0.9, 339.58 -0.25, 441.54 -2.06 M0.02 -0.6 C172.81 -3.75, 347.38 -5.25, 440.64 -1.38" stroke="#1e1e1e" stroke-width="2" fill="none"></path></g><g transform="translate(1612.379947480702 1357.1315799975155) rotate(0 219.83036445541393 -1.3168122909767135)"><path d="M415.09 7.74 C425.43 2.95, 433.57 -0.68, 442.25 -1.74 M416.99 6.09 C425.66 3.51, 436.11 -0.5, 441.34 -1.06" stroke="#1e1e1e" stroke-width="2" fill="none"></path></g><g transform="translate(1612.379947480702 1357.1315799975155) rotate(0 219.83036445541393 -1.3168122909767135)"><path d="M415.44 -9.35 C425.64 -7.52, 433.64 -4.52, 442.25 -1.74 M417.34 -11.01 C425.86 -6.85, 436.17 -4.11, 441.34 -1.06" stroke="#1e1e1e" stroke-width="2" fill="none"></path></g></g><mask></mask><g stroke-linecap="round"><g transform="translate(1617.7134028843484 1781.0279737186356) rotate(0 223.2871776236782 0.8885161347001258)"><path d="M-0.72 -0.72 C108.6 -2.95, 222.28 -1.53, 447.29 2.11 M-0.63 0.17 C167.05 2.82, 333.88 4.62, 446.1 2.87" stroke="#1e1e1e" stroke-width="2" fill="none"></path></g><g transform="translate(1617.7134028843484 1781.0279737186356) rotate(0 223.2871776236782 0.8885161347001258)"><path d="M421.93 10.83 C426.78 8.05, 435.97 6.77, 447.99 2.7 M422.02 11.74 C431.89 7.8, 440.9 5.52, 446.78 3.48" stroke="#1e1e1e" stroke-width="2" fill="none"></path></g><g transform="translate(1617.7134028843484 1781.0279737186356) rotate(0 223.2871776236782 0.8885161347001258)"><path d="M421.83 -6.27 C426.54 -4.81, 435.75 -1.85, 447.99 2.7 M421.91 -5.36 C431.83 -2.9, 440.87 1.21, 446.78 3.48" stroke="#1e1e1e" stroke-width="2" fill="none"></path></g></g><mask></mask><g stroke-linecap="round"><g transform="translate(1606.3799881708073 2228.448282894631) rotate(0 239.96139610459727 -0.9453557650107314)"><path d="M-1.53 -1.07 C170.76 0.6, 340.37 0.14, 481.45 -1.72 M0.4 -0.56 C116.06 -0.86, 231.48 -1.04, 479.94 -1.85" stroke="#1e1e1e" stroke-width="2" fill="none"></path></g><g transform="translate(1606.3799881708073 2228.448282894631) rotate(0 239.96139610459727 -0.9453557650107314)"><path d="M454.7 5.53 C466.39 3.45, 474.94 0.6, 481.42 -1.82 M456.94 6.12 C462.87 4.97, 468.49 3.19, 479.67 -1.98" stroke="#1e1e1e" stroke-width="2" fill="none"></path></g><g transform="translate(1606.3799881708073 2228.448282894631) rotate(0 239.96139610459727 -0.9453557650107314)"><path d="M454.65 -11.57 C466.29 -7.62, 474.87 -4.44, 481.42 -1.82 M456.89 -10.99 C462.72 -8.02, 468.35 -5.69, 479.67 -1.98" stroke="#1e1e1e" stroke-width="2" fill="none"></path></g></g><mask></mask><g transform="translate(1441.713036673411 1878.9335886637364) rotate(0 278.7658996582031 22.5)"><text x="0" y="31.536" font-family="Virgil, Segoe UI Emoji" font-size="36px" fill="#1e1e1e" text-anchor="start" style="white-space: pre;" direction="ltr" dominant-baseline="alphabetic">compare hash of refresh_token</text></g><g transform="translate(1523.7131587437234 1459.6003977457667) rotate(0 250.9379119873047 22.5)"><text x="0" y="31.536" font-family="Virgil, Segoe UI Emoji" font-size="36px" fill="#1e1e1e" text-anchor="start" style="white-space: pre;" direction="ltr" dominant-baseline="alphabetic">save hash of refresh_token</text></g><g transform="translate(1405.713280814035 2330.9339141845703) rotate(0 339.8218994140625 22.5)"><text x="0" y="31.536" font-family="Virgil, Segoe UI Emoji" font-size="36px" fill="#1e1e1e" text-anchor="start" style="white-space: pre;" direction="ltr" dominant-baseline="alphabetic">delete hash of refresh_token from db</text></g><g transform="translate(932.3801509312234 2324.2671457926417) rotate(0 36.71998596191406 22.5)"><text x="0" y="31.536" font-family="Virgil, Segoe UI Emoji" font-size="36px" fill="#1e1e1e" text-anchor="start" style="white-space: pre;" direction="ltr" dominant-baseline="alphabetic">204</text></g><g transform="translate(28.380008515860027 2532.2672271728516) rotate(0 410.60242476879716 33.16660563151021)"><text x="0" y="46.48631445312468" font-family="Virgil, Segoe UI Emoji" font-size="53.066569010416295px" fill="#1e1e1e" text-anchor="start" style="white-space: pre;" direction="ltr" dominant-baseline="alphabetic">What if refresh token is stolen</text></g><g transform="translate(769.7133215041395 2665.600458780924) rotate(0 319.78790283203125 22.5)"><text x="0" y="31.536" font-family="Virgil, Segoe UI Emoji" font-size="36px" fill="#1e1e1e" text-anchor="start" style="white-space: pre;" direction="ltr" dominant-baseline="alphabetic">Manual delete of RT hash from DB</text></g></svg>